<svg xmlns="http://www.w3.org/2000/svg" width="394" height="394" viewBox="0 0 394 394">
  <defs>
    <style>
      .cls-1 {
        fill: #313131;
      }

      .cls-2 {
        fill: #016ed3;
      }

      .cls-2, .cls-3 {
        fill-rule: evenodd;
      }

      .cls-3 {
        fill: #fff;
      }
    </style>
  </defs>
  <circle id="Elipse_1" data-name="Elipse 1" class="cls-1" cx="196.594" cy="196.594" r="189.594"/>
  <path id="Elipse_1_copia_2" data-name="Elipse 1 copia 2" class="cls-2" d="M196.594,23.219A173.375,173.375,0,1,1,23.219,196.594,173.375,173.375,0,0,1,196.594,23.219Zm0,13.969A159.406,159.406,0,1,1,37.188,196.594,159.406,159.406,0,0,1,196.594,37.188Z"/>
  <path id="Forma_1" data-name="Forma 1" class="cls-3" d="M328,115H111a47.371,47.371,0,0,0-27,13c-10.406,10.192-14.114,23.705-14,35,0.112,11.127,3.986,24.888,15,35a47.019,47.019,0,0,0,27,12h50a20.99,20.99,0,0,1-1,41H93L67,277H170a50.71,50.71,0,0,0,21-13c7.729-8.011,14.125-19.963,14-34a48.108,48.108,0,0,0-12-31,49.209,49.209,0,0,0-28-16H113a21.44,21.44,0,0,1-16-19c-0.644-10.044,6.456-19.6,17-22H301Z"/>
  <path id="Forma_2" data-name="Forma 2" class="cls-2" d="M208,210h60V183H185a43.688,43.688,0,0,1,16,14A114.357,114.357,0,0,1,208,210Z"/>
  <path id="Forma_3" data-name="Forma 3" class="cls-2" d="M208,251h92l26,26H186a48.405,48.405,0,0,0,14-12C203.768,260.21,208,251,208,251Z"/>
</svg>
