<svg xmlns="http://www.w3.org/2000/svg" width="1291" height="394" viewBox="0 0 1291 394">
  <defs>
    <style>
      .cls-1, .cls-2 {
        fill: #313131;
      }

      .cls-2, .cls-3, .cls-4 {
        fill-rule: evenodd;
      }

      .cls-3 {
        fill: #016ed3;
      }

      .cls-4 {
        fill: #fff;
      }
    </style>
  </defs>
  <circle id="Elipse_1" data-name="Elipse 1" class="cls-1" cx="196.594" cy="196.594" r="189.594"/>
  <path id="SOLUCIONES_ELECTRICAS_copia" data-name="SOLUCIONES ELECTRICAS copia" class="cls-2" d="M489.336,160.811a111.89,111.89,0,0,0,15.048-.744,29.226,29.226,0,0,0,9.028-2.773q12.781-6.627,12.782-22.994a32.472,32.472,0,0,0-2.536-12.984,20.891,20.891,0,0,0-16.671-13.255q-5.817-1.082-17.651-1.082h-5.545q-10.821,0-15.453-2.976t-4.633-9.874q0-7.844,5.275-11.226a15.533,15.533,0,0,1,5.579-2.063,56.067,56.067,0,0,1,9.232-.575H521.8V68.5H483.791q-12.851,0-19.849,2.671a23.437,23.437,0,0,0-11.395,9.367,27.721,27.721,0,0,0-4.532,15.69q0,13.458,9.874,19.679,6.9,4.4,22.858,4.4h7.71q10.617,0,14.134,1.15,7.912,2.571,7.913,13.323,0,8.454-6.087,11.97-3.99,2.3-13.187,2.3h-39.9v11.768h38.007Zm71.213-90.149a36.1,36.1,0,0,0-14.473,10.279A39.391,39.391,0,0,0,538.6,95.516a66.626,66.626,0,0,0-2.739,19.307,70.777,70.777,0,0,0,2.6,19.308q2.6,9.231,6.932,14.574,10.82,13.459,34.49,13.458,20.7,0,32.8-10.82,12.645-11.362,12.647-36.452,0-20.423-7.575-31.988-10.414-15.757-36.519-15.757Q569.137,67.282,560.549,70.662Zm44.093,19.206q5,7.981,5,25.428,0,14.27-3.382,21.641-6.222,13.458-25.36,13.458-16.839,0-23.6-10.077-5.75-8.588-5.749-25.766,0-14.268,3.923-22.317,6.492-13.322,25.631-13.323,16.7,0.136,23.534,10.956h0Zm34.22,34.084q0,10.821,1.759,17.076a24.714,24.714,0,0,0,6.086,10.719,26.38,26.38,0,0,0,11.193,7.034q6.39,2.028,17.143,2.029h22.723V149.043H677.951q-13.593.136-20.018-6.289a15.46,15.46,0,0,1-3.347-7.27,68.288,68.288,0,0,1-.981-13.289V68.5H638.862v55.455ZM707.3,68.5v54.847q0,11.295,1.691,17.042a28.164,28.164,0,0,0,14,17.448q8.046,4.4,21.641,4.4,15.147,0,24.684-4.667,12.51-6.085,15.216-17.583,1.353-5.746,1.353-17.786V68.5H771.143v53.7a90.787,90.787,0,0,1-.642,12.782,16.1,16.1,0,0,1-2.4,6.627q-6.087,8.86-21.709,8.859-14.136,0-20.153-7.574a17.046,17.046,0,0,1-3.246-7.338,61.91,61.91,0,0,1-.947-12.206V68.5H707.3Zm139.044,80.545q-9.672,0-14.608-1.521a18.9,18.9,0,0,1-8.657-5.715q-7.98-8.994-7.98-26.1a63.549,63.549,0,0,1,2.063-16.671A30.859,30.859,0,0,1,822.879,87.1a16.431,16.431,0,0,1,8.047-5.376q4.8-1.453,14.2-1.454H873.8V68.5H844.317q-15.759,0-24.211,4.058t-14,14.269q-6.7,12.309-6.695,28.472a57.887,57.887,0,0,0,4.936,24.414q6.831,15.013,21.236,19.071,7.235,2.028,19.544,2.029H873.8V149.043H846.346Zm56.875,11.768V68.5H888.478v92.313h14.743Zm39.292-90.149A36.1,36.1,0,0,0,928.04,80.942a39.405,39.405,0,0,0-7.473,14.574,66.66,66.66,0,0,0-2.738,19.307,70.777,70.777,0,0,0,2.6,19.308q2.6,9.231,6.932,14.574,10.819,13.459,34.491,13.458,20.694,0,32.8-10.82,12.639-11.362,12.646-36.452,0-20.423-7.574-31.988-10.414-15.757-36.519-15.757Q951.1,67.282,942.513,70.662Zm44.093,19.206q5,7.981,5,25.428,0,14.27-3.381,21.641Q982.007,150.4,962.869,150.4q-16.839,0-23.6-10.077-5.75-8.588-5.749-25.766,0-14.268,3.923-22.317,6.492-13.322,25.631-13.323,16.7,0.136,23.534,10.956h0Zm97.254,70.942h17.11V68.5h-14.34v73.85L1039.56,68.5h-17.58v92.313h14.33V87.164ZM1160.95,68.5q-16.155,0-25.22,4.734T1120.78,89.4q-5.28,10.347-5.27,27.051,0,12.579,3.24,21.1,6.015,15.893,19.01,20.626,7.23,2.637,18.86,2.638h30.37V149.043h-27.66q-9.27,0-14.47-2.434a19.76,19.76,0,0,1-8.66-8.386,34.518,34.518,0,0,1-4.4-18.057h55.19V108.4H1131.8a47.426,47.426,0,0,1,2.74-14.473,21.921,21.921,0,0,1,6.66-9.062,19.113,19.113,0,0,1,7.34-3.584,50.541,50.541,0,0,1,11.53-1.014h26.92V68.5h-26.04Zm78.79,92.313a111.945,111.945,0,0,0,15.05-.744,29.235,29.235,0,0,0,9.02-2.773q12.8-6.627,12.79-22.994a32.473,32.473,0,0,0-2.54-12.984,20.9,20.9,0,0,0-16.67-13.255q-5.82-1.082-17.65-1.082h-5.55q-10.815,0-15.45-2.976t-4.63-9.874q0-7.844,5.27-11.226a15.559,15.559,0,0,1,5.58-2.063,56.065,56.065,0,0,1,9.23-.575h38.01V68.5h-38.01q-12.84,0-19.85,2.671a23.452,23.452,0,0,0-11.39,9.367,27.735,27.735,0,0,0-4.53,15.69q0,13.458,9.87,19.679,6.9,4.4,22.86,4.4h7.71q10.62,0,14.13,1.15,7.92,2.571,7.92,13.323,0,8.454-6.09,11.97-3.99,2.3-13.19,2.3h-39.9v11.768h38.01Zm-718.1,73.872H488.415c-12.459,0-18.826,1.938-25.332,7.475-10.244,8.721-15.642,21.733-15.642,38.068,0,15.365,4.291,28.239,12.181,36.406,7.337,7.752,16.75,10.382,36.406,10.382h25.609V310.541H496.859c-18.826,0-25.748-5.4-27.132-21.179h51.91V272.889h-51.91c0.692-9.136,1.246-11.213,4.015-14.95,4.014-5.26,9-6.783,22.286-6.783h25.609V234.683Zm14.581,0v51.772c0,9.551.831,17.165,2.215,21.317,2.907,8.86,9.967,15.227,19.38,17.719,4.706,1.246,7.752,1.523,20.764,1.523h20.9V310.541H580.653c-12.458,0-16.611-.831-20.21-4.014s-3.876-4.015-4.568-20.072V234.683H536.218Zm144,0H647c-12.459,0-18.826,1.938-25.332,7.475-10.244,8.721-15.643,21.733-15.643,38.068,0,15.365,4.292,28.239,12.182,36.406,7.337,7.752,16.75,10.382,36.406,10.382h25.609V310.541H655.443c-18.826,0-25.748-5.4-27.132-21.179h51.91V272.889h-51.91c0.692-9.136,1.246-11.213,4.015-14.95,4.014-5.26,9-6.783,22.286-6.783h25.609V234.683Zm85.594,75.858H737.576q-11.213,0-16.611-4.153c-5.537-4.014-8.444-13.566-8.444-27.131,0-9.552,1.661-16.888,4.706-20.626,4.015-4.983,10.521-7.475,19.657-7.475h28.931V234.683H734.531c-9,0-18.134,1.661-23.394,4.153-13.012,6.091-20.349,21.456-20.349,42.22,0,16.473,4.291,29.208,12.181,36.822,7.2,6.921,14.812,9.136,30.731,9.136h32.115V310.541Zm34.791-59.385v75.858h19.656V251.156h30.454V234.683h-79.6v16.473h29.485Zm79.915,40.836H896.3c17.441,0,23.255,5.122,25.055,21.871,0.138,1.8.554,5.676,0.83,8.167a21.521,21.521,0,0,0,1.108,4.984h22.01c-1.246-3.461-1.523-5.4-2.215-13.981-0.692-14.4-5.952-22.7-16.75-25.609,11.9-4.153,17.58-12.874,17.58-26.993,0-8.444-3.737-15.919-10.243-20.349-5.537-3.876-13.7-5.4-27.685-5.4H860.864v92.331h19.657V291.992Zm0-16.473V251.156h27.547a30.213,30.213,0,0,1,7.336.692c4.292,1.523,6.783,5.4,6.783,10.936,0,9-4.014,12.735-14.119,12.735H880.521Zm79.372,51.5H979.55V234.683H959.893v92.331Zm108.547-16.473H1040.2q-11.205,0-16.61-4.153c-5.54-4.014-8.44-13.566-8.44-27.131,0-9.552,1.66-16.888,4.7-20.626,4.02-4.983,10.52-7.475,19.66-7.475h28.93V234.683h-31.28c-9,0-18.14,1.661-23.4,4.153-13.01,6.091-20.346,21.456-20.346,42.22,0,16.473,4.291,29.208,12.186,36.822,7.19,6.921,14.81,9.136,30.73,9.136h32.11V310.541Zm6.97,16.473h23.11l8.86-21.456h35.16l8.86,21.456h22.98l-38.2-92.331h-22.57Zm49.55-70.183,13.15,32.254h-26.3Zm59.17,70.183h46.37c13.7,0,19.52-.831,24.08-3.738,7.2-4.429,11.77-13.566,11.77-23.532,0-7.891-2.77-16.058-6.92-20.211-5.4-5.537-12.74-7.613-26.3-7.613h-14.81c-6.65,0-8.86-.277-11.63-1.523-3.32-1.522-5.26-4.845-5.26-9,0-4.845,2.35-8.444,6.23-9.413,2.9-.693,3.6-0.693,12.32-0.831h41.25V234.683h-45.68c-10.8,0-15.64.416-19.8,1.938-9.69,3.322-16.05,13.566-16.05,25.471a26.832,26.832,0,0,0,8.72,20.21c4.84,4.153,12.04,6.091,23.11,6.091h17.03c4.43,0,8.03.553,9.97,1.661a10.657,10.657,0,0,1,5.95,9.828,9.634,9.634,0,0,1-4.57,8.444c-2.35,1.523-6.37,2.215-13.7,2.215h-42.08v16.473Z"/>
  <rect id="Rectángulo_1" data-name="Rectángulo 1" class="cls-1" x="401" y="67" width="15" height="260"/>
  <path id="Elipse_1_copia_2" data-name="Elipse 1 copia 2" class="cls-3" d="M196.594,23.219A173.375,173.375,0,1,1,23.219,196.594,173.375,173.375,0,0,1,196.594,23.219Zm0,13.969A159.406,159.406,0,1,1,37.187,196.594,159.406,159.406,0,0,1,196.594,37.188Z"/>
  <path id="Forma_1" data-name="Forma 1" class="cls-4" d="M328,115H111a47.371,47.371,0,0,0-27,13c-10.406,10.192-14.114,23.705-14,35,0.112,11.127,3.986,24.888,15,35a47.019,47.019,0,0,0,27,12h50a20.99,20.99,0,0,1-1,41H93L67,277H170a50.71,50.71,0,0,0,21-13c7.729-8.011,14.125-19.963,14-34a48.108,48.108,0,0,0-12-31,49.212,49.212,0,0,0-28-16H113a21.44,21.44,0,0,1-16-19c-0.644-10.044,6.456-19.6,17-22H301Z"/>
  <path id="Forma_2" data-name="Forma 2" class="cls-3" d="M208,210h60V183H185a43.688,43.688,0,0,1,16,14A114.357,114.357,0,0,1,208,210Z"/>
  <path id="Forma_3" data-name="Forma 3" class="cls-3" d="M208,251h92l26,26H186a48.405,48.405,0,0,0,14-12C203.768,260.21,208,251,208,251Z"/>
</svg>
